<svg width="263" height="170" viewBox="0 0 263 170" fill="none" xmlns="http://www.w3.org/2000/svg">
<ellipse cx="130.5" cy="138.5" rx="103.5" ry="80.5" fill="#EFAF5A"/>
<ellipse cx="130.5" cy="168.5" rx="95.5" ry="50.5" fill="#FDFCFC"/>
<path d="M122.969 25.7082C128.441 25.0303 133.912 24.9789 139.384 25.706C139.538 32.8226 139.885 39.9151 139.514 47.0622C138.946 58.0008 139.077 68.9757 138.922 79.9355C138.897 81.7737 139.885 83.0261 141.503 83.6924C143.116 84.3573 144.676 84.1213 146.014 82.8929C147.295 81.7169 148.102 80.2705 148.637 78.6275C151.69 69.2553 153.57 59.6147 155.357 49.9446C156.688 42.7401 157.824 35.5076 158.902 28.2635C161.269 28.4186 163.534 29.1037 165.797 29.7215C167.004 30.051 167.875 29.8635 168.847 29.1234C183.946 17.6184 200.322 8.39616 218.146 1.7975C220.622 0.880861 223.127 -0.064736 225.845 0.00348366C231.426 0.143427 234.977 3.70538 235.842 10.0901C238.055 26.4214 238.232 42.7917 236.879 59.2054C235.977 70.1391 234.601 80.9912 232.048 91.6739C231.889 92.3404 231.931 92.9813 232.09 93.6361C233.558 99.685 233.856 105.869 233.964 112.043C234.12 120.952 234.028 129.866 234.024 138.778C234.024 139.431 233.877 140.084 233.8 140.737C231.855 141.038 229.908 141.338 227.963 141.638C225.144 141.348 222.322 141.345 219.499 141.598C217.568 141.291 215.72 141.935 213.828 142.086C213.5 142.106 213.171 142.126 212.842 142.146C212.679 142.095 212.517 142.043 212.355 141.992C207.8 138.915 202.934 136.398 198.007 133.983C195.139 132.577 192.027 131.69 189.34 129.905C189.554 129.714 189.747 129.49 189.986 129.339C195.565 125.825 198.124 120.661 197.548 114.225C196.926 107.287 193.066 102.473 186.427 100.272C179.917 98.1128 173.99 99.5127 169.216 104.465C164.046 109.828 163.562 116.13 166.251 122.851C165.664 122.844 165.061 122.925 164.495 122.815C158.279 121.615 152.027 120.731 145.717 120.152C132.597 118.948 119.556 119.511 106.53 121.345C102.758 121.876 99.0646 123.019 95.2033 122.9C95.3331 122.484 95.4334 122.057 95.5968 121.656C98.7499 113.905 95.7452 105.499 88.3483 101.397C81.1117 97.3832 71.6773 99.4731 66.7727 106.176C61.9202 112.808 62.7971 121.82 68.8801 127.426C69.8951 128.361 71.049 129.147 72.1387 130.001C71.3669 131.137 70.0222 131.243 68.9105 131.723C62.0292 134.694 55.2663 137.879 49.0948 142.187C44.0203 141.648 38.9451 141.131 33.8318 141.601C31.8173 141.263 29.8027 140.926 27.7881 140.589C27.806 129.612 27.7457 118.635 27.8864 107.661C27.9323 104.071 28.0575 100.389 29.119 96.9474C30.5876 92.1849 28.761 87.8143 28.0351 83.318C26.3813 73.0742 25.1133 62.8039 24.5637 52.4285C24.2086 45.7249 24.183 39.031 24.2897 32.3353C24.4162 24.3878 25.1318 16.4694 26.4196 8.62431C27.4954 2.0713 32.9135 -1.29372 39.3176 0.649922C48.5178 3.44219 57.2053 7.48539 65.6896 11.9633C75.2866 17.0283 84.4595 22.7712 93.0974 29.3462C93.9494 29.9947 94.7138 30.0896 95.7468 29.8114C98.152 29.1635 100.513 28.2464 103.066 28.2887C103.949 33.7802 104.793 39.2784 105.724 44.7618C107.356 54.3687 109.099 63.9563 111.71 73.3575C112.454 76.0395 113.075 78.7824 114.527 81.2213C115.87 83.4782 118.014 84.4431 120.284 83.7917C122.453 83.169 123.42 81.6805 123.422 78.8887C123.427 72.2006 123.225 65.5174 123.066 58.8316C122.804 47.7958 122.979 36.75 122.969 25.7082ZM224.799 26.0911C224.868 20.8942 223.143 19.7467 219.146 21.3778C217.783 21.934 216.439 22.5425 215.109 23.1745C206.247 27.3846 197.807 32.3727 189.297 37.2285C188.495 37.6861 187.131 38.0507 187.18 38.9583C187.236 39.9699 188.648 40.1949 189.519 40.6759C201.21 47.1364 211.221 55.5624 219.421 66.1147C219.803 66.6075 220.01 67.5516 220.783 67.2706C221.479 67.0174 221.213 66.1112 221.27 65.4698C221.899 58.3775 222.52 51.2843 223.155 44.1924C223.724 37.8335 224.309 31.4758 224.799 26.0911ZM40.6566 67.6502C40.8229 67.7246 40.9892 67.7991 41.1554 67.8735C50.0884 55.542 61.6502 46.3002 75.1547 39.0967C73.2079 37.3847 71.1101 36.4666 69.1576 35.3421C60.5415 30.3802 51.9801 25.3062 42.806 21.4011C38.9701 19.7683 37.3483 20.8177 37.5043 24.8723C37.815 32.943 38.4897 40.99 39.2146 49.0342C39.7732 55.2325 40.1815 61.4444 40.6566 67.6502Z" fill="#EFAF5A"/>
<path d="M122.97 25.7078C122.979 36.7496 122.804 47.7957 123.067 58.8314C123.225 65.5172 123.427 72.2004 123.422 78.8885C123.421 81.6803 122.454 83.1689 120.285 83.7915C118.015 84.4429 115.87 83.4779 114.527 81.2211C113.076 78.7822 112.455 76.0393 111.71 73.3573C109.1 63.9562 107.357 54.3685 105.725 44.7616C104.793 39.2782 103.95 33.78 103.066 28.2885C107.364 27.0749 111.789 26.5858 116.204 26.1015C118.444 25.8559 120.69 25.4019 122.97 25.7078Z" fill="#DE6E51"/>
<path d="M158.901 28.2641C157.824 35.5081 156.688 42.7406 155.357 49.9451C153.57 59.6153 151.69 69.2558 148.637 78.628C148.102 80.271 147.294 81.7175 146.014 82.8934C144.676 84.1218 143.116 84.3578 141.503 83.6929C139.885 83.0265 138.897 81.7743 138.922 79.936C139.076 68.9763 138.946 58.0013 139.514 47.0627C139.885 39.9156 139.538 32.8231 139.384 25.7065C145.986 25.8222 152.48 26.7679 158.901 28.2641Z" fill="#DE6E51"/>
<path d="M224.799 26.0911C224.31 31.4759 223.725 37.8334 223.155 44.1924C222.52 51.2843 221.9 58.3775 221.271 65.4699C221.214 66.1112 221.48 67.0174 220.784 67.2706C220.011 67.5517 219.804 66.6077 219.421 66.1148C211.222 55.5625 201.211 47.1364 189.519 40.6759C188.649 40.1949 187.236 39.9699 187.181 38.9583C187.132 38.0508 188.496 37.6861 189.298 37.2285C197.808 32.3727 206.247 27.3846 215.109 23.1745C216.439 22.5426 217.783 21.9342 219.146 21.3778C223.144 19.7467 224.869 20.8942 224.799 26.0911Z" fill="#D55853"/>
<path d="M40.6587 67.6503C40.1835 61.4445 39.7751 55.2327 39.2166 49.0343C38.4916 40.9901 37.817 32.9431 37.5063 24.8724C37.3502 20.8178 38.9721 19.7683 42.808 21.4012C51.9821 25.3063 60.5437 30.3803 69.1596 35.3422C71.1122 36.4666 73.21 37.3848 75.1567 39.0968C61.6522 46.3003 50.0904 55.5422 41.1574 67.8736C40.9912 67.7992 40.8249 67.7247 40.6587 67.6503Z" fill="#D55853"/>
<path d="M95.2024 122.9C89.6161 131.328 82.4912 133.521 72.1369 130.001C71.0481 129.147 69.8942 128.362 68.8792 127.426C62.7962 121.821 61.9192 112.808 66.7718 106.177C71.6764 99.4736 81.1108 97.3837 88.3473 101.397C95.7441 105.499 98.7489 113.905 95.5958 121.656C95.4325 122.058 95.3321 122.485 95.2024 122.9Z" fill="#272D43"/>
<path d="M189.338 129.905C184.089 132.061 178.835 132.551 173.556 129.988C170.322 128.418 168.104 125.824 166.25 122.852C163.56 116.129 164.044 109.828 169.214 104.465C173.988 99.5125 179.916 98.1126 186.426 100.271C193.064 102.473 196.924 107.286 197.546 114.225C198.123 120.661 195.564 125.825 189.985 129.339C189.745 129.489 189.553 129.714 189.338 129.905Z" fill="#272D43"/>
<path d="M131.344 134.394C135.024 134.395 138.705 134.363 142.385 134.41C144.125 134.432 145.127 135.291 145.049 137.163C144.751 144.368 138.843 150.491 131.905 150.768C124.485 151.064 118.206 145.653 117.347 138.22C117.028 135.463 117.914 134.43 120.744 134.401C124.277 134.364 127.811 134.392 131.344 134.394Z" fill="#272D43"/>
<rect x="0.683594" y="136" width="64.058" height="6" rx="3" transform="rotate(6.55396 0.683594 136)" fill="#373851"/>
<rect width="64.058" height="6" rx="3" transform="matrix(-0.993465 0.114139 0.114139 0.993465 261.637 136)" fill="#373851"/>
<rect x="0.0390625" y="157.007" width="64.058" height="6" rx="3" transform="rotate(-1.23678 0.0390625 157.007)" fill="#373851"/>
<rect width="64.058" height="6" rx="3" transform="matrix(-0.999767 -0.0215843 -0.0215843 0.999767 262.285 157.007)" fill="#373851"/>
</svg>
