<svg width="286" height="48" viewBox="0 0 286 48" fill="none" xmlns="http://www.w3.org/2000/svg">
<path fill-rule="evenodd" clip-rule="evenodd" d="M54.8984 32.2377L58.0685 37.2L66.501 24L58.0685 10.8L54.8984 15.7623L56.2321 17.9098L58.0685 15.0351L63.7955 24L58.0685 32.9649L56.2321 30.0903L54.8984 32.2377Z" fill="#030201"/>
<path fill-rule="evenodd" clip-rule="evenodd" d="M26.9324 10.8L30.1025 15.7623L28.7688 17.9098L26.9324 15.0351L21.2055 24L26.9324 32.9649L28.7688 30.0903L30.1025 32.2377L26.9324 37.2L18.5 24L26.9324 10.8Z" fill="#030201"/>
<path fill-rule="evenodd" clip-rule="evenodd" d="M30.2817 24L42.501 43.657L54.7202 24L42.501 4.34299L30.2817 24ZM27.582 24L42.501 48L57.4199 24L42.501 0L27.582 24Z" fill="#030201"/>
<path fill-rule="evenodd" clip-rule="evenodd" d="M35.3174 24L42.5 35.4922L49.6826 24L42.5 12.5078L35.3174 24ZM32.5 24L42.5 40L52.5 24L42.5 8L32.5 24Z" fill="#030201"/>
<path d="M84.9 32V16.8H95V19.44H88.06V23.12H94.88V25.76H88.06V32H84.9ZM98.5639 32V29.76H102.544V19.04H99.1639V16.8H105.604V29.76H109.584V32H98.5639ZM118.128 32.24C114.828 32.24 112.748 29.9 112.748 26.56C112.748 23.22 114.888 20.9 118.128 20.9C121.188 20.9 123.508 22.96 123.508 26.62C123.508 26.84 123.488 27.2 123.468 27.48H115.848C116.068 29.32 116.908 30.16 118.148 30.16C119.268 30.16 119.888 29.64 120.188 28.78H123.268C122.568 31.12 120.668 32.24 118.128 32.24ZM115.888 25.44H120.388C120.248 23.92 119.388 22.98 118.128 22.98C116.948 22.98 116.128 23.74 115.888 25.44ZM126.372 32L130.192 26.2L126.692 21.14H129.932L132.112 24.48L134.312 21.14H137.552L134.032 26.2L137.872 32H134.592L132.112 28.12L129.632 32H126.372ZM155.34 32V16.8H160.8C164.68 16.8 166.88 18.66 166.88 21.76C166.88 24.86 164.7 26.72 160.8 26.72H158.5V32H155.34ZM158.5 24.1H160.84C162.62 24.1 163.64 23.3 163.64 21.76C163.64 20.22 162.62 19.4 160.84 19.4H158.5V24.1ZM171.423 32V21.14H174.443V24.58C174.883 22.92 176.363 20.9 179.483 20.9H180.103V23.72H178.903C175.643 23.72 174.483 25 174.483 27.04V32H171.423ZM188.947 32.24C185.527 32.24 183.427 29.9 183.427 26.58C183.427 23.24 185.527 20.9 188.947 20.9C192.347 20.9 194.447 23.24 194.447 26.58C194.447 29.9 192.347 32.24 188.947 32.24ZM186.547 26.58C186.547 28.76 187.387 30.16 188.947 30.16C190.507 30.16 191.327 28.76 191.327 26.58C191.327 24.38 190.507 22.98 188.947 22.98C187.387 22.98 186.547 24.38 186.547 26.58ZM204.611 32C202.411 32 200.871 30.9 200.871 28.78V28.74V23.38H197.231V21.14H200.871V18.58H203.931V21.14H208.271V23.38H203.931V28.5V28.54C203.931 29.42 204.351 29.76 205.291 29.76H208.271V32H204.611ZM217.355 32.24C213.935 32.24 211.835 29.9 211.835 26.58C211.835 23.24 213.935 20.9 217.355 20.9C220.755 20.9 222.855 23.24 222.855 26.58C222.855 29.9 220.755 32.24 217.355 32.24ZM214.955 26.58C214.955 28.76 215.795 30.16 217.355 30.16C218.915 30.16 219.735 28.76 219.735 26.58C219.735 24.38 218.915 22.98 217.355 22.98C215.795 22.98 214.955 24.38 214.955 26.58ZM231.919 32.24C228.519 32.24 226.399 29.9 226.399 26.58C226.399 23.24 228.519 20.9 231.899 20.9C234.699 20.9 236.659 22.5 237.079 25.04H233.999C233.779 23.9 233.099 22.98 231.899 22.98C230.359 22.98 229.519 24.38 229.519 26.58C229.519 28.84 230.379 30.16 231.919 30.16C233.099 30.16 233.799 29.4 234.099 28.14H237.179C236.699 30.8 234.579 32.24 231.919 32.24ZM245.763 32.24C242.343 32.24 240.243 29.9 240.243 26.58C240.243 23.24 242.343 20.9 245.763 20.9C249.163 20.9 251.263 23.24 251.263 26.58C251.263 29.9 249.163 32.24 245.763 32.24ZM243.363 26.58C243.363 28.76 244.203 30.16 245.763 30.16C247.323 30.16 248.143 28.76 248.143 26.58C248.143 24.38 247.323 22.98 245.763 22.98C244.203 22.98 243.363 24.38 243.363 26.58ZM254.807 32V29.76H258.787V19.04H255.407V16.8H261.847V29.76H265.827V32H254.807Z" fill="#030201"/>
</svg>
