<svg width="21" height="17" viewBox="0 0 21 17" fill="none" xmlns="http://www.w3.org/2000/svg">
<path d="M17.0608 6.43935L14.5859 3.96448" stroke="#808080" stroke-linecap="round"/>
<path d="M12 10.5H14.5C14.8333 10.5 15.5 10.7 15.5 11.5C15.5 12.3 15.5 12.5 15.5 12.5C15.5 12.8333 15.7 13.5 16.5 13.5C17.3 13.5 17.5 12.8333 17.5 12.5V7.5" stroke="#808080"/>
<path d="M3.5 2.5C3.5 1.67157 4.17157 1 5 1H11C11.8284 1 12.5 1.67157 12.5 2.5V16H3.5V2.5Z" stroke="#808080"/>
<rect x="5.5" y="3" width="5" height="3" rx="0.5" stroke="#808080"/>
<path d="M1 16H20" stroke="#808080" stroke-linecap="round"/>
<path d="M17.0607 8.56096C16.4749 9.14675 15.5251 9.14675 14.9393 8.56096C14.3536 7.97518 14.3536 7.02543 14.9393 6.43964C15.5251 5.85386 16.4749 5.85386 17.0607 6.43964C17.6464 7.02543 17.6464 7.97518 17.0607 8.56096Z" stroke="#808080"/>
</svg>
