<svg width="240" height="48" viewBox="0 0 240 48" fill="none" xmlns="http://www.w3.org/2000/svg">
<path fill-rule="evenodd" clip-rule="evenodd" d="M36.3984 32.2375L39.5685 37.1998L48.001 23.9998L39.5685 10.7998L36.3984 15.7621L37.7321 17.9096L39.5685 15.0349L45.2955 23.9998L39.5685 32.9647L37.7321 30.0901L36.3984 32.2375Z" fill="#030201"/>
<path fill-rule="evenodd" clip-rule="evenodd" d="M8.43245 10.7998L11.6025 15.7621L10.2688 17.9096L8.43245 15.0349L2.70548 23.9998L8.43245 32.9647L10.2688 30.0901L11.6025 32.2375L8.43245 37.1998L0 23.9998L8.43245 10.7998Z" fill="#030201"/>
<path fill-rule="evenodd" clip-rule="evenodd" d="M11.7817 24L24.001 43.657L36.2202 24L24.001 4.34299L11.7817 24ZM9.08203 24L24.001 48L38.9199 24L24.001 0L9.08203 24Z" fill="#030201"/>
<path fill-rule="evenodd" clip-rule="evenodd" d="M16.8174 24L24 35.4922L31.1826 24L24 12.5078L16.8174 24ZM14 24L24 40L34 24L24 8L14 24Z" fill="#030201"/>
<path d="M57.4 32V16.8H67.5V19.44H60.56V23.12H67.38V25.76H60.56V32H57.4ZM71.0639 32V29.76H75.0439V19.04H71.6639V16.8H78.1039V29.76H82.0839V32H71.0639ZM90.6278 32.24C87.3278 32.24 85.2478 29.9 85.2478 26.56C85.2478 23.22 87.3878 20.9 90.6278 20.9C93.6878 20.9 96.0078 22.96 96.0078 26.62C96.0078 26.84 95.9878 27.2 95.9678 27.48H88.3478C88.5678 29.32 89.4078 30.16 90.6478 30.16C91.7678 30.16 92.3878 29.64 92.6878 28.78H95.7678C95.0678 31.12 93.1678 32.24 90.6278 32.24ZM88.3878 25.44H92.8878C92.7478 23.92 91.8878 22.98 90.6278 22.98C89.4478 22.98 88.6278 23.74 88.3878 25.44ZM98.8717 32L102.692 26.2L99.1917 21.14H102.432L104.612 24.48L106.812 21.14H110.052L106.532 26.2L110.372 32H107.092L104.612 28.12L102.132 32H98.8717ZM127.84 32V16.8H133.3C137.18 16.8 139.38 18.66 139.38 21.76C139.38 24.86 137.2 26.72 133.3 26.72H131V32H127.84ZM131 24.1H133.34C135.12 24.1 136.14 23.3 136.14 21.76C136.14 20.22 135.12 19.4 133.34 19.4H131V24.1ZM143.923 32V21.14H146.943V24.58C147.383 22.92 148.863 20.9 151.983 20.9H152.603V23.72H151.403C148.143 23.72 146.983 25 146.983 27.04V32H143.923ZM161.447 32.24C158.027 32.24 155.927 29.9 155.927 26.58C155.927 23.24 158.027 20.9 161.447 20.9C164.847 20.9 166.947 23.24 166.947 26.58C166.947 29.9 164.847 32.24 161.447 32.24ZM159.047 26.58C159.047 28.76 159.887 30.16 161.447 30.16C163.007 30.16 163.827 28.76 163.827 26.58C163.827 24.38 163.007 22.98 161.447 22.98C159.887 22.98 159.047 24.38 159.047 26.58ZM177.111 32C174.911 32 173.371 30.9 173.371 28.78V28.74V23.38H169.731V21.14H173.371V18.58H176.431V21.14H180.771V23.38H176.431V28.5V28.54C176.431 29.42 176.851 29.76 177.791 29.76H180.771V32H177.111ZM189.855 32.24C186.435 32.24 184.335 29.9 184.335 26.58C184.335 23.24 186.435 20.9 189.855 20.9C193.255 20.9 195.355 23.24 195.355 26.58C195.355 29.9 193.255 32.24 189.855 32.24ZM187.455 26.58C187.455 28.76 188.295 30.16 189.855 30.16C191.415 30.16 192.235 28.76 192.235 26.58C192.235 24.38 191.415 22.98 189.855 22.98C188.295 22.98 187.455 24.38 187.455 26.58ZM204.419 32.24C201.019 32.24 198.899 29.9 198.899 26.58C198.899 23.24 201.019 20.9 204.399 20.9C207.199 20.9 209.159 22.5 209.579 25.04H206.499C206.279 23.9 205.599 22.98 204.399 22.98C202.859 22.98 202.019 24.38 202.019 26.58C202.019 28.84 202.879 30.16 204.419 30.16C205.599 30.16 206.299 29.4 206.599 28.14H209.679C209.199 30.8 207.079 32.24 204.419 32.24ZM218.263 32.24C214.843 32.24 212.743 29.9 212.743 26.58C212.743 23.24 214.843 20.9 218.263 20.9C221.663 20.9 223.763 23.24 223.763 26.58C223.763 29.9 221.663 32.24 218.263 32.24ZM215.863 26.58C215.863 28.76 216.703 30.16 218.263 30.16C219.823 30.16 220.643 28.76 220.643 26.58C220.643 24.38 219.823 22.98 218.263 22.98C216.703 22.98 215.863 24.38 215.863 26.58ZM227.307 32V29.76H231.287V19.04H227.907V16.8H234.347V29.76H238.327V32H227.307Z" fill="#030201"/>
</svg>
