<svg width="106" height="48" viewBox="0 0 106 48" fill="none" xmlns="http://www.w3.org/2000/svg">
<path d="M16.4647 22.2975C17.0958 23.2834 17.0958 24.5463 16.4647 25.5322L10.2767 35.1994C8.66086 37.7237 4.75 36.5792 4.75 33.582L4.75 14.2476C4.75 11.2504 8.66086 10.1059 10.2767 12.6303L16.4647 22.2975Z" fill="black" fill-opacity="0.2"/>
<path d="M33.7848 22.2975C34.4159 23.2834 34.4159 24.5463 33.7848 25.5322L27.5968 35.1994C25.9809 37.7237 22.0701 36.5792 22.0701 33.582L22.0701 14.2476C22.0701 11.2504 25.9809 10.1059 27.5968 12.6303L33.7848 22.2975Z" fill="black" fill-opacity="0.6"/>
<path d="M51.105 22.2975C51.7361 23.2834 51.7361 24.5463 51.105 25.5322L44.917 35.1994C43.3011 37.7237 39.3903 36.5792 39.3903 33.582L39.3903 14.2476C39.3903 11.2504 43.3011 10.1059 44.917 12.6303L51.105 22.2975Z" fill="black"/>
<path d="M53.7457 25.6931C53.1046 24.7137 53.0918 23.4508 53.7128 22.4586L59.8023 12.729C61.3924 10.1884 65.3147 11.2931 65.3452 14.2901L65.5416 33.6235C65.5721 36.6206 61.673 37.8047 60.0316 35.2969L53.7457 25.6931Z" fill="black"/>
<path d="M71.5323 25.6931C70.8913 24.7137 70.8784 23.4508 71.4995 22.4586L77.5889 12.729C79.1791 10.1884 83.1013 11.2931 83.1318 14.2901L83.3282 33.6235C83.3587 36.6206 79.4597 37.8047 77.8183 35.2969L71.5323 25.6931Z" fill="black" fill-opacity="0.6"/>
<path d="M89.3188 25.6931C88.6778 24.7137 88.6649 23.4508 89.286 22.4586L95.3754 12.729C96.9656 10.1884 100.888 11.2931 100.918 14.2901L101.115 33.6235C101.145 36.6206 97.2462 37.8047 95.6048 35.2969L89.3188 25.6931Z" fill="black" fill-opacity="0.2"/>
</svg>
