<svg width="104" height="106" viewBox="0 0 104 106" fill="none" xmlns="http://www.w3.org/2000/svg">
<g filter="url(#filter0_d_4162_1205)">
<path fill-rule="evenodd" clip-rule="evenodd" d="M95.8895 40.0715C95.4783 38.9536 95.3016 37.7549 95.4831 36.5777C96.9101 27.3241 97.9461 15.4179 96.0016 8.46268C93.6345 -0.00423041 78.3894 8.80362 68.3399 16.2354C66.8935 17.3051 65.0642 17.7027 63.2931 17.3866C59.6828 16.7424 55.8987 16.3999 51.9994 16.3999C48.0857 16.3999 44.2878 16.745 40.6654 17.3938C38.8942 17.7111 37.0641 17.3145 35.6168 16.2452C25.5669 8.82022 10.3623 0.0499125 7.99861 8.50463C6.05632 15.4521 7.0878 27.3394 8.51227 36.5886C8.6934 37.7646 8.51699 38.962 8.10663 40.0789C7.4629 41.831 7.03042 43.6419 6.82917 45.4976C6.0181 48.6881 5.5 53.5516 5.5 59C5.5 64.8102 6.08921 69.9553 6.99458 73.1156C9.57375 88.8097 28.7393 101 51.9994 101C75.2508 101 94.4107 88.8189 97.0013 73.1333C97.9096 69.9746 98.501 64.8211 98.501 59C98.501 53.5433 97.9813 48.6732 97.1681 45.483C96.9659 43.6297 96.533 41.8213 95.8895 40.0715Z" fill="#6ECE6C"/>
</g>
<path fill-rule="evenodd" clip-rule="evenodd" d="M45.664 45.7998H58.4523C63.4525 45.7998 66.8008 49.3103 66.8008 54.5318V66.584C66.8008 71.7893 63.4525 75.2998 58.4523 75.2998H45.664C40.6638 75.2998 37.3008 71.7893 37.3008 66.584V54.5318C37.3008 49.3103 40.6638 45.7998 45.664 45.7998ZM51.2126 64.9604L58.2188 57.9541C58.7203 57.4526 58.7203 56.6414 58.2188 56.1251C57.7173 55.6236 56.8913 55.6236 56.3898 56.1251L50.2981 62.2169L47.7168 59.6356C47.2153 59.1341 46.3893 59.1341 45.8878 59.6356C45.3863 60.1371 45.3863 60.9484 45.8878 61.4646L49.3983 64.9604C49.6491 65.2111 49.9736 65.3291 50.2981 65.3291C50.6373 65.3291 50.9618 65.2111 51.2126 64.9604Z" fill="white"/>
<defs>
<filter id="filter0_d_4162_1205" x="0.7" y="0.2" width="102.601" height="105.6" filterUnits="userSpaceOnUse" color-interpolation-filters="sRGB">
<feFlood flood-opacity="0" result="BackgroundImageFix"/>
<feColorMatrix in="SourceAlpha" type="matrix" values="0 0 0 0 0 0 0 0 0 0 0 0 0 0 0 0 0 0 127 0" result="hardAlpha"/>
<feOffset/>
<feGaussianBlur stdDeviation="2.4"/>
<feComposite in2="hardAlpha" operator="out"/>
<feColorMatrix type="matrix" values="0 0 0 0 0 0 0 0 0 0 0 0 0 0 0 0 0 0 0.32 0"/>
<feBlend mode="normal" in2="BackgroundImageFix" result="effect1_dropShadow_4162_1205"/>
<feBlend mode="normal" in="SourceGraphic" in2="effect1_dropShadow_4162_1205" result="shape"/>
</filter>
</defs>
</svg>
